<svg xmlns="http://www.w3.org/2000/svg" width="256" height="256" viewBox="0 0 256 256" version="1.1"><path d="M 18.193 243.250 L 18.500 247.500 95.787 248 C 163.029 248.435, 173.197 248.695, 174.021 250 C 174.543 250.825, 174.976 251.838, 174.985 252.250 C 174.993 252.662, 176.918 253, 179.263 253 C 182.724 253, 183.711 252.577, 184.513 250.750 C 185.492 248.519, 185.719 248.496, 211.500 248 L 237.500 247.500 237.807 243.250 L 238.115 239 128 239 L 17.885 239 18.193 243.250" stroke="none" fill="#fcd69a" fill-rule="evenodd"/><path d="M 44.750 65.748 C 52.587 65.917, 65.412 65.917, 73.250 65.748 C 81.087 65.579, 74.675 65.441, 59 65.441 C 43.325 65.441, 36.912 65.579, 44.750 65.748 M 182.750 65.748 C 190.587 65.917, 203.412 65.917, 211.250 65.748 C 219.087 65.579, 212.675 65.441, 197 65.441 C 181.325 65.441, 174.912 65.579, 182.750 65.748 M 55.272 167 C 55.272 169.475, 55.467 170.488, 55.706 169.250 C 55.944 168.012, 55.944 165.988, 55.706 164.750 C 55.467 163.512, 55.272 164.525, 55.272 167 M 108.382 174.500 C 108.384 181.100, 108.546 183.670, 108.741 180.211 C 108.937 176.752, 108.936 171.352, 108.738 168.211 C 108.540 165.070, 108.380 167.900, 108.382 174.500 M 116.158 169 C 116.158 170.375, 116.385 170.938, 116.662 170.250 C 116.940 169.563, 116.940 168.438, 116.662 167.750 C 116.385 167.063, 116.158 167.625, 116.158 169 M 116.316 180.500 C 116.460 181.932, 117.299 182.535, 119.271 182.622 C 121.680 182.728, 121.718 182.689, 119.574 182.311 C 118.226 182.074, 116.896 181.119, 116.619 180.190 C 116.255 178.970, 116.171 179.057, 116.316 180.500 M 10.813 190.683 C 11.534 190.972, 12.397 190.936, 12.729 190.604 C 13.061 190.272, 12.471 190.036, 11.417 190.079 C 10.252 190.127, 10.015 190.364, 10.813 190.683 M 115.264 190.718 C 116.784 190.947, 119.034 190.941, 120.264 190.704 C 121.494 190.467, 120.250 190.279, 117.500 190.286 C 114.750 190.294, 113.744 190.488, 115.264 190.718 M 28.619 218.025 C 24.021 219.417, 18 226.179, 18 229.950 C 18 230.677, 51.864 231, 128 231 C 219.764 231, 238 230.776, 238 229.648 C 238 227.623, 233.881 221.966, 230.677 219.592 C 227.862 217.506, 227.592 217.500, 129.677 217.326 C 75.680 217.231, 30.204 217.545, 28.619 218.025" stroke="none" fill="#91deb6" fill-rule="evenodd"/><path d="M 74 127.500 L 74 132 82.500 132 L 91 132 91 127.500 L 91 123 82.500 123 L 74 123 74 127.500 M 165 127.500 L 165 132 173.500 132 L 182 132 182 127.500 L 182 123 173.500 123 L 165 123 165 127.500 M 237 149.500 C 237 155.127, 237.405 159, 237.994 159 C 238.540 159, 240.327 160.849, 241.964 163.108 L 244.940 167.217 247.042 163.653 C 248.199 161.692, 250.013 159.813, 251.073 159.477 C 254.034 158.537, 253.823 150.843, 250.798 149.487 C 249.536 148.921, 248.239 147.096, 247.760 145.210 C 246.884 141.769, 244.058 140, 239.435 140 C 237.026 140, 237 140.101, 237 149.500 M 47.320 168 C 47.320 171.575, 47.502 173.037, 47.723 171.250 C 47.945 169.463, 47.945 166.537, 47.723 164.750 C 47.502 162.963, 47.320 164.425, 47.320 168 M 220.370 177 C 220.370 182.775, 220.535 185.137, 220.737 182.250 C 220.939 179.363, 220.939 174.637, 220.737 171.750 C 220.535 168.863, 220.370 171.225, 220.370 177 M 250.716 172.904 C 249.606 174.783, 249 177.937, 249 181.833 C 249 185.976, 248.509 188.348, 247.429 189.429 C 245.569 191.288, 245.436 191.304, 242.934 189.965 C 241.321 189.101, 240.996 187.816, 240.978 182.215 C 240.961 177.094, 240.491 174.907, 239 173 L 237.044 170.500 237.022 181.327 C 237 191.947, 236.944 192.210, 234.077 195.077 L 231.154 198 117.388 198 L 3.623 198 5.811 200.039 C 7.015 201.160, 8 202.891, 8 203.884 C 8 204.877, 8.823 206.435, 9.829 207.345 C 11.508 208.865, 21.157 209, 128.174 209 C 237.896 209, 244.779 208.898, 246.211 207.250 C 247.047 206.287, 248.018 204.292, 248.368 202.817 C 248.718 201.341, 249.904 199.848, 251.002 199.499 C 252.878 198.904, 253 197.981, 253 184.433 C 253 176.495, 252.872 170, 252.716 170 C 252.559 170, 251.659 171.307, 250.716 172.904" stroke="none" fill="#cddbdf" fill-rule="evenodd"/><path d="M 41.750 139.083 C 40.186 140.797, 38.523 141, 26.082 141 C 18.427 141, 11.457 141.271, 10.593 141.603 C 9.729 141.934, 8.563 143.908, 8.003 145.988 C 7.354 148.399, 6.262 149.960, 4.992 150.292 C 1.955 151.086, 2.152 158.154, 5.250 159.513 C 7.344 160.432, 7.520 161.213, 7.785 170.795 C 8.093 181.870, 8.593 182.821, 13.467 181.598 C 15.857 180.998, 15.939 180.677, 16.215 170.846 C 16.450 162.481, 16.805 160.520, 18.250 159.611 C 19.524 158.810, 20.476 158.810, 21.750 159.612 C 23.205 160.527, 23.548 162.503, 23.784 171.341 C 24.112 183.638, 23.032 186.808, 17.643 189.365 C 13.375 191.390, 10.340 191.426, 6.636 189.494 C 5.060 188.672, 3.598 188, 3.386 188 C 3.174 188, 3 190.363, 3 193.250 L 3 198.500 117.587 198 L 232.174 197.500 234.587 194.694 C 236.814 192.105, 236.999 191.062, 236.993 181.194 C 236.988 172.204, 236.670 170.022, 235 167.500 C 232.473 163.684, 232.473 161.346, 235 159.768 C 236.753 158.673, 237 157.436, 237 149.759 L 237 141 146.500 141 C 57.333 141, 55.971 140.971, 54 139 C 51.330 136.330, 44.220 136.378, 41.750 139.083 M 32.200 160.200 C 31.388 161.012, 31 165.673, 31 174.629 C 31 185.321, 31.301 188.158, 32.571 189.429 C 36.271 193.128, 38.773 190.582, 39.194 182.688 L 39.500 176.944 44.226 183.472 C 49.047 190.133, 51.987 191.613, 54.800 188.800 C 56.315 187.285, 56.454 163.718, 54.965 160.934 C 54.377 159.837, 52.879 159, 51.500 159 C 48.367 159, 47 161.637, 47 167.681 L 47 172.494 43.476 167.497 C 41.537 164.749, 39.292 161.713, 38.485 160.750 C 36.788 158.723, 33.927 158.473, 32.200 160.200 M 64.200 160.200 C 63.382 161.018, 63 165.805, 63 175.221 C 63 188.950, 63.017 189.050, 65.470 190.168 C 70.266 192.353, 71 190.349, 71 175.078 C 71 161.129, 70.470 159, 67 159 C 66.120 159, 64.860 159.540, 64.200 160.200 M 77.902 160.618 C 76.754 162.001, 77.209 164.123, 81.026 175.187 C 85.977 189.538, 87.638 191.942, 91.414 190.221 C 93.369 189.330, 94.631 186.669, 98.140 176.038 C 102.621 162.459, 102.688 159.973, 98.595 159.167 C 95.874 158.632, 94.256 160.720, 91.895 167.815 L 89.678 174.478 87.341 167.549 C 86.055 163.738, 84.440 160.262, 83.752 159.825 C 81.743 158.550, 79.349 158.875, 77.902 160.618 M 109.571 160.571 C 108.307 161.836, 108 164.637, 108 174.916 C 108 190.326, 108.403 191, 117.629 191 C 123.973 191, 126 189.910, 126 186.500 C 126 183.500, 124.100 182, 120.300 182 C 118.033 182, 117 181.530, 117 180.500 C 117 179.451, 118.058 179, 120.521 179 C 123.296 179, 124.282 178.476, 125.168 176.530 C 126.693 173.183, 124.802 171, 120.378 171 C 117.700 171, 117 170.597, 117 169.057 C 117 167.487, 117.814 167.056, 121.250 166.807 C 125.108 166.528, 125.530 166.233, 125.830 163.609 C 126.262 159.821, 124.804 159.034, 117.321 159.015 C 113.022 159.005, 110.665 159.478, 109.571 160.571 M 135.200 160.200 C 134.382 161.018, 134 165.805, 134 175.221 C 134 188.950, 134.017 189.050, 136.470 190.168 C 139.606 191.597, 142 189.868, 142 186.175 C 142 183.618, 142.037 183.630, 145.970 187.471 C 149.567 190.983, 150.179 191.239, 152.470 190.195 C 155.808 188.675, 155.697 185.812, 152.148 181.840 L 149.297 178.649 151.710 176.573 C 153.272 175.230, 154.323 173.007, 154.690 170.276 C 155.205 166.434, 154.940 165.740, 151.728 162.528 C 148.488 159.288, 147.718 159, 142.300 159 C 139.044 159, 135.862 159.538, 135.200 160.200 M 167.357 159.992 C 162.492 161.955, 160.405 169.278, 163.466 173.647 C 164.272 174.798, 167.417 176.749, 170.455 177.982 C 173.494 179.215, 175.733 180.624, 175.431 181.112 C 174.527 182.575, 169.340 182.115, 167.958 180.449 C 167.242 179.587, 165.524 179.032, 164.086 179.199 C 161.855 179.459, 161.500 179.980, 161.500 183 C 161.500 186.179, 161.936 186.716, 166.258 188.860 C 169.904 190.668, 171.867 191.060, 174.658 190.536 C 179.681 189.594, 184.006 185.088, 183.978 180.827 C 183.947 176.293, 181.512 173.528, 175 170.634 C 170.966 168.841, 169.942 168.012, 171.160 167.523 C 172.073 167.156, 174.214 167.577, 175.919 168.458 C 179.808 170.469, 183 169.113, 183 165.450 C 183 160.685, 173.689 157.436, 167.357 159.992 M 192.093 160.387 C 191.316 161.324, 191.033 166.241, 191.221 175.530 C 191.461 187.354, 191.746 189.440, 193.250 190.388 C 194.525 191.190, 195.475 191.190, 196.750 190.388 C 198.254 189.440, 198.539 187.354, 198.779 175.530 C 199.067 161.306, 198.540 159, 195 159 C 194.035 159, 192.727 159.624, 192.093 160.387 M 207.076 160.408 C 204.958 162.961, 206.144 166.459, 209.250 166.816 L 212 167.133 212 177.495 C 212 188.094, 212.971 191, 216.515 191 C 219.667 191, 221 186.795, 221 176.847 C 221 167.682, 221.120 167.121, 223.148 166.820 C 226.139 166.375, 227.808 163.506, 226.389 161.250 C 224.869 158.832, 208.959 158.139, 207.076 160.408 M 142 169 C 142 170.273, 142.667 171, 143.833 171 C 146.374 171, 147.190 169.934, 145.869 168.342 C 144.210 166.344, 142 166.720, 142 169" stroke="none" fill="#e8edf2" fill-rule="evenodd"/><path d="M 168.864 37.754 C 164.465 44.432, 162.124 45.443, 149.774 46 L 138.681 46.500 147.070 51.750 L 155.459 57 168.770 57 L 182.081 57 181.790 48.874 L 181.500 40.748 176.364 37.457 L 171.229 34.165 168.864 37.754 M 74 51.500 L 74 57 87.469 57 L 100.938 57 108.219 52.356 C 112.223 49.802, 115.927 47.327, 116.450 46.856 C 116.980 46.378, 107.812 46, 95.700 46 L 74 46 74 51.500 M 47.750 110.748 L 65 111.047 65 117.024 L 65 123 48 123 L 31 123 31 127.500 L 31 132 35.992 132 C 39.900 132, 41.254 132.434, 42.232 134 C 43.182 135.521, 44.564 136, 48 136 C 51.436 136, 52.818 135.521, 53.768 134 C 54.771 132.394, 56.100 132, 60.508 132 L 66 132 66 121 L 66 110 48.250 110.225 L 30.500 110.450 47.750 110.748 M 190 121 L 190 132 207.500 132 L 225 132 225 127.500 L 225 123 208 123 L 191 123 191 117.024 L 191 111.047 208.250 110.748 L 225.500 110.450 207.750 110.225 L 190 110 190 121" stroke="none" fill="#ffbd86" fill-rule="evenodd"/><path d="M 100.149 24.596 C 77.803 38.778, 74 41.541, 74 43.596 L 74 46 95.789 46 C 115.603 46, 117.933 45.819, 121.500 44 C 126.449 41.477, 129.551 41.477, 134.500 44 C 137.674 45.618, 140.397 46, 148.761 46 C 159.729 46, 162.741 45.131, 166.625 40.845 C 172.300 34.582, 173.034 35.472, 150.331 21.085 C 138.974 13.888, 128.921 8, 127.990 8 C 127.059 8, 114.531 15.468, 100.149 24.596 M 31 117 L 31 123 48 123 L 65 123 65 117 L 65 111 48 111 L 31 111 31 117 M 191 117 L 191 123 208 123 L 225 123 225 117 L 225 111 208 111 L 191 111 191 117" stroke="none" fill="#fed2a4" fill-rule="evenodd"/><path d="M 73.667 40.667 C 73.300 41.033, 73 45.083, 73 49.667 L 73 58 87.250 57.781 L 101.500 57.561 87.677 57.252 L 73.855 56.943 74.177 48.469 C 74.355 43.808, 74.463 39.996, 74.417 39.998 C 74.371 39.999, 74.033 40.300, 73.667 40.667 M 181.823 48.563 L 182.145 56.943 168.323 57.252 L 154.500 57.561 168.750 57.781 L 183 58 183 49.559 C 183 44.916, 182.662 40.908, 182.250 40.651 C 181.838 40.394, 181.645 43.955, 181.823 48.563 M 34.250 102.746 C 40.163 102.923, 49.838 102.923, 55.750 102.746 C 61.663 102.569, 56.825 102.425, 45 102.425 C 33.175 102.425, 28.338 102.569, 34.250 102.746 M 200.250 102.746 C 206.162 102.923, 215.838 102.923, 221.750 102.746 C 227.662 102.569, 222.825 102.425, 211 102.425 C 199.175 102.425, 194.338 102.569, 200.250 102.746 M 111.250 105.748 C 120.463 105.913, 135.537 105.913, 144.750 105.748 C 153.963 105.583, 146.425 105.448, 128 105.448 C 109.575 105.448, 102.037 105.583, 111.250 105.748 M 99.185 122.750 L 99 133 111.500 133 L 124 133 124 128 L 124 123 112.052 123 L 100.105 123 99.737 117.750 C 99.535 114.853, 99.287 117.095, 99.185 122.750 M 156 118 L 156 123 144 123 L 132 123 132 128 L 132 133 144.500 133 L 157 133 157 123 C 157 117.500, 156.775 113, 156.500 113 C 156.225 113, 156 115.250, 156 118 M 73.398 127.500 L 73.500 132.500 82.500 132.500 L 91.500 132.500 91.582 128 L 91.663 123.500 91.277 127.750 L 90.890 132 82.500 132 L 74.110 132 73.703 127.250 L 73.296 122.500 73.398 127.500 M 164.398 127.500 L 164.500 132.500 173.500 132.500 L 182.500 132.500 182.582 128 L 182.663 123.500 182.277 127.750 L 181.890 132 173.500 132 L 165.110 132 164.703 127.250 L 164.296 122.500 164.398 127.500 M 33.264 132.718 C 34.784 132.947, 37.034 132.941, 38.264 132.704 C 39.494 132.467, 38.250 132.279, 35.500 132.286 C 32.750 132.294, 31.744 132.488, 33.264 132.718 M 58.250 132.716 C 59.763 132.945, 62.237 132.945, 63.750 132.716 C 65.263 132.487, 64.025 132.300, 61 132.300 C 57.975 132.300, 56.737 132.487, 58.250 132.716 M 198.199 132.744 C 202.984 132.927, 211.084 132.928, 216.199 132.746 C 221.315 132.564, 217.400 132.414, 207.500 132.413 C 197.600 132.412, 193.415 132.561, 198.199 132.744 M 50.813 159.683 C 51.534 159.972, 52.397 159.936, 52.729 159.604 C 53.061 159.272, 52.471 159.036, 51.417 159.079 C 50.252 159.127, 50.015 159.364, 50.813 159.683 M 114.768 159.725 C 116.565 159.947, 119.265 159.943, 120.768 159.715 C 122.271 159.486, 120.800 159.304, 117.500 159.310 C 114.200 159.315, 112.971 159.502, 114.768 159.725 M 139.264 159.718 C 140.784 159.947, 143.034 159.941, 144.264 159.704 C 145.494 159.467, 144.250 159.279, 141.500 159.286 C 138.750 159.294, 137.744 159.488, 139.264 159.718 M 171.269 159.693 C 172.242 159.947, 173.592 159.930, 174.269 159.656 C 174.946 159.382, 174.150 159.175, 172.500 159.195 C 170.850 159.215, 170.296 159.439, 171.269 159.693 M 212.776 159.733 C 215.128 159.945, 218.728 159.942, 220.776 159.727 C 222.824 159.512, 220.900 159.339, 216.500 159.343 C 212.100 159.346, 210.424 159.522, 212.776 159.733 M 236.813 159.683 C 237.534 159.972, 238.397 159.936, 238.729 159.604 C 239.061 159.272, 238.471 159.036, 237.417 159.079 C 236.252 159.127, 236.015 159.364, 236.813 159.683 M 16.355 170.500 C 16.352 175.450, 16.521 177.601, 16.731 175.280 C 16.940 172.959, 16.943 168.909, 16.736 166.280 C 16.530 163.651, 16.358 165.550, 16.355 170.500 M 63.389 174.500 C 63.390 181.650, 63.550 184.444, 63.742 180.708 C 63.935 176.973, 63.934 171.123, 63.739 167.708 C 63.545 164.294, 63.387 167.350, 63.389 174.500 M 134.392 175 C 134.392 182.425, 134.549 185.463, 134.742 181.750 C 134.934 178.037, 134.934 171.963, 134.742 168.250 C 134.549 164.537, 134.392 167.575, 134.392 175 M 7.355 171.500 C 7.352 176.450, 7.521 178.601, 7.731 176.280 C 7.940 173.959, 7.943 169.909, 7.736 167.280 C 7.530 164.651, 7.358 166.550, 7.355 171.500 M 31.385 175 C 31.385 181.875, 31.545 184.688, 31.740 181.250 C 31.936 177.813, 31.936 172.188, 31.740 168.750 C 31.545 165.313, 31.385 168.125, 31.385 175 M 154.079 169.583 C 154.127 170.748, 154.364 170.985, 154.683 170.188 C 154.972 169.466, 154.936 168.603, 154.604 168.271 C 154.272 167.939, 154.036 168.529, 154.079 169.583 M 248.320 182 C 248.320 185.575, 248.502 187.037, 248.723 185.250 C 248.945 183.463, 248.945 180.537, 248.723 178.750 C 248.502 176.963, 248.320 178.425, 248.320 182 M 118.250 178.689 C 119.213 178.941, 120.787 178.941, 121.750 178.689 C 122.713 178.438, 121.925 178.232, 120 178.232 C 118.075 178.232, 117.287 178.438, 118.250 178.689 M 183.158 181 C 183.158 182.375, 183.385 182.938, 183.662 182.250 C 183.940 181.563, 183.940 180.438, 183.662 179.750 C 183.385 179.063, 183.158 179.625, 183.158 181 M 55.158 184 C 55.158 185.375, 55.385 185.938, 55.662 185.250 C 55.940 184.563, 55.940 183.438, 55.662 182.750 C 55.385 182.063, 55.158 182.625, 55.158 184 M 7.079 203.583 C 7.127 204.748, 7.364 204.985, 7.683 204.188 C 7.972 203.466, 7.936 202.603, 7.604 202.271 C 7.272 201.939, 7.036 202.529, 7.079 203.583 M 69.750 209.750 C 101.788 209.896, 154.213 209.896, 186.250 209.750 C 218.288 209.603, 192.075 209.484, 128 209.484 C 63.925 209.484, 37.713 209.603, 69.750 209.750 M 17.396 239.411 C 17.096 240.192, 17.042 242.107, 17.276 243.666 C 17.633 246.049, 17.724 245.904, 17.850 242.750 L 18 239 127.940 239 L 237.879 239 238.294 242.509 L 238.710 246.017 238.605 242.259 L 238.500 238.500 128.220 238.246 C 33.715 238.028, 17.863 238.194, 17.396 239.411 M 57.750 248.750 C 78.788 248.900, 113.213 248.900, 134.250 248.750 C 155.288 248.599, 138.075 248.476, 96 248.476 C 53.925 248.476, 36.713 248.599, 57.750 248.750 M 199.308 248.748 C 206.353 248.920, 217.603 248.919, 224.308 248.747 C 231.014 248.574, 225.250 248.433, 211.500 248.434 C 197.750 248.434, 192.264 248.576, 199.308 248.748" stroke="none" fill="#c86d36" fill-rule="evenodd"/><path d="M 73.415 105 C 73.415 115.175, 73.564 119.337, 73.745 114.250 C 73.927 109.162, 73.927 100.837, 73.745 95.750 C 73.564 90.662, 73.415 94.825, 73.415 105 M 182.415 105 C 182.415 115.175, 182.564 119.337, 182.745 114.250 C 182.927 109.162, 182.927 100.837, 182.745 95.750 C 182.564 90.662, 182.415 94.825, 182.415 105 M 91.336 116 C 91.336 120.125, 91.513 121.813, 91.728 119.750 C 91.944 117.688, 91.944 114.313, 91.728 112.250 C 91.513 110.188, 91.336 111.875, 91.336 116 M 164.336 116 C 164.336 120.125, 164.513 121.813, 164.728 119.750 C 164.944 117.688, 164.944 114.313, 164.728 112.250 C 164.513 110.188, 164.336 111.875, 164.336 116 M 100 118 L 100 123 112 123 L 124 123 124 118 L 124 113 112 113 L 100 113 100 118 M 132 118 L 132 123 144 123 L 156 123 156 118 L 156 113 144 113 L 132 113 132 118 M 212.370 177 C 212.370 182.775, 212.535 185.137, 212.737 182.250 C 212.939 179.363, 212.939 174.637, 212.737 171.750 C 212.535 168.863, 212.370 171.225, 212.370 177 M 55.310 176.500 C 55.315 179.800, 55.502 181.029, 55.725 179.232 C 55.947 177.435, 55.943 174.735, 55.715 173.232 C 55.486 171.729, 55.304 173.200, 55.310 176.500" stroke="none" fill="#d77f4a" fill-rule="evenodd"/><path d="M 100.635 66.909 C 86.960 75.623, 75.379 83.371, 74.901 84.126 C 74.422 84.882, 74.024 93.938, 74.015 104.250 L 74 123 82.500 123 L 91 123 91 115.200 C 91 110.467, 91.472 106.928, 92.200 106.200 C 93.087 105.313, 102.422 105, 128 105 C 153.578 105, 162.913 105.313, 163.800 106.200 C 164.528 106.928, 165 110.467, 165 115.200 L 165 123 173.500 123 L 182 123 182 104.582 C 182 94.452, 181.733 85.468, 181.407 84.619 C 180.510 82.280, 130.641 50.995, 127.871 51.032 C 126.563 51.050, 114.347 58.171, 100.635 66.909" stroke="none" fill="#f5f8f9" fill-rule="evenodd"/><path d="M 29.602 66.835 C 28.440 68.715, 21.917 100.057, 22.494 100.990 C 22.883 101.619, 31.173 102, 44.468 102 L 65.818 102 66.159 91.578 C 66.561 79.297, 66.975 78.628, 79 70.851 L 86.500 66 58.309 66 C 42.804 66, 29.886 66.376, 29.602 66.835 M 177 70.851 C 189.025 78.628, 189.439 79.297, 189.841 91.578 L 190.182 102 211.532 102 C 224.827 102, 233.117 101.619, 233.506 100.990 C 234.083 100.057, 227.560 68.715, 226.398 66.835 C 226.114 66.376, 213.196 66, 197.691 66 L 169.500 66 177 70.851" stroke="none" fill="#b3dafe" fill-rule="evenodd"/><path d="M 100.149 24.596 C 77.803 38.778, 74 41.541, 74 43.596 L 74 46 95.789 46 C 115.603 46, 117.933 45.819, 121.500 44 C 126.449 41.477, 129.551 41.477, 134.500 44 C 137.674 45.618, 140.397 46, 148.761 46 C 159.729 46, 162.741 45.131, 166.625 40.845 C 172.300 34.582, 173.034 35.472, 150.331 21.085 C 138.974 13.888, 128.921 8, 127.990 8 C 127.059 8, 114.531 15.468, 100.149 24.596 M 31 117 L 31 123 48 123 L 65 123 65 117 L 65 111 48 111 L 31 111 31 117 M 191 117 L 191 123 208 123 L 225 123 225 117 L 225 111 208 111 L 191 111 191 117" stroke="none" fill="#fed2a4" fill-rule="evenodd"/><path d="M 89.891 21.250 C 58.179 41.432, 56.500 42.651, 56.500 45.500 C 56.500 48.185, 56.815 48.491, 59.500 48.416 C 61.150 48.370, 63.288 47.985, 64.250 47.559 C 65.789 46.879, 66 47.401, 66 51.893 L 66 57 48.250 57.002 C 28.778 57.003, 24.715 57.943, 22.317 63 C 20.862 66.068, 14 96.399, 14 99.762 C 14 103.293, 16.954 107.738, 20.191 109.079 L 23 110.243 23 121.121 L 23 132 17.468 132 C 7.417 132, 1.151 136.484, 0.269 144.307 C -0.290 149.269, 0.739 150.533, 4.557 149.575 C 6.044 149.202, 7 148.240, 7 147.116 C 7 146.100, 7.933 144.084, 9.073 142.635 C 11.145 140, 11.147 140, 25.950 140 C 38.238 140, 40.979 139.731, 42.070 138.416 C 44.363 135.652, 41.965 133.539, 36.147 133.198 L 31 132.895 31 121.448 L 31 110 48.500 110 L 66 110 66 121.450 L 66 132.900 60.354 133.200 C 54.032 133.536, 51.552 135.550, 53.930 138.416 C 55.113 139.841, 64.769 140, 150.050 140 L 244.855 140 246.927 142.635 C 248.067 144.084, 249 146.100, 249 147.116 C 249 149.439, 253.434 150.714, 255.513 148.989 C 257.162 147.620, 257.626 140.495, 256 141.500 C 255.450 141.840, 255 141.501, 255 140.746 C 255 138.871, 250.119 134.361, 246.685 133.064 C 245.137 132.479, 241.424 132, 238.435 132 L 233 132 233 121.121 L 233 110.243 235.809 109.079 C 239.046 107.738, 242 103.293, 242 99.762 C 242 96.399, 235.138 66.068, 233.683 63 C 231.285 57.943, 227.222 57.003, 207.750 57.002 L 190 57 190 51.893 C 190 47.401, 190.211 46.879, 191.750 47.559 C 192.713 47.985, 194.850 48.370, 196.500 48.416 C 199.185 48.491, 199.500 48.185, 199.500 45.500 C 199.500 42.651, 197.819 41.429, 166.132 21.250 C 134.748 1.264, 132.482 0, 128.023 0 C 123.564 -0, 121.291 1.267, 89.891 21.250 M 125.928 7.830 C 125.063 8.198, 112.800 15.859, 98.678 24.853 L 73 41.206 73 49.603 L 73 58 86.557 58 L 100.114 58 111.307 50.750 C 121.750 43.986, 122.868 43.500, 128 43.500 C 133.124 43.500, 134.271 43.996, 144.777 50.750 L 156.054 58 169.527 58 L 183 58 183 49.579 L 183 41.159 157.162 24.698 C 142.950 15.645, 130.463 7.995, 129.412 7.699 C 128.360 7.402, 126.792 7.461, 125.928 7.830 M 100.293 66.262 C 82.568 77.594, 74.771 83.139, 74.023 84.943 C 73.351 86.567, 73.059 95.770, 73.230 110.005 L 73.500 132.500 82.500 132.500 L 91.500 132.500 92 119.500 L 92.500 106.500 128 106.500 L 163.500 106.500 164 119.500 L 164.500 132.500 173.500 132.500 L 182.500 132.500 182.770 110.005 C 182.939 95.868, 182.647 86.563, 181.984 84.962 C 180.656 81.756, 131.282 49.963, 127.804 50.074 C 126.537 50.114, 114.157 57.399, 100.293 66.262 M 29.197 66.750 C 28.716 67.713, 26.819 75.409, 24.981 83.853 C 22.532 95.109, 21.917 99.645, 22.678 100.853 C 23.580 102.283, 26.501 102.536, 44.858 102.770 L 66 103.040 66 93.754 C 66 81.554, 67.329 79.051, 77.286 72.500 C 81.465 69.750, 85.698 66.964, 86.692 66.309 C 88.113 65.373, 82.249 65.105, 59.285 65.059 C 32.427 65.005, 30 65.141, 29.197 66.750 M 169.317 66.309 C 190.133 79.959, 190 79.782, 190 93.754 L 190 103.040 211.142 102.770 C 229.499 102.536, 232.420 102.283, 233.322 100.853 C 234.083 99.645, 233.468 95.109, 231.019 83.853 C 229.181 75.409, 227.284 67.713, 226.803 66.750 C 226 65.141, 223.573 65.005, 196.715 65.059 C 173.746 65.105, 167.888 65.372, 169.317 66.309 M 190 121.500 L 190 133 207.500 133 L 225 133 225 121.500 L 225 110 207.500 110 L 190 110 190 121.500 M 99 123 L 99 133 111.500 133 L 124 133 124 123 L 124 113 111.500 113 L 99 113 99 123 M 132 123 L 132 133 144.500 133 L 157 133 157 123 L 157 113 144.500 113 L 132 113 132 123 M 0.252 145.500 C 0.263 147.700, 0.468 148.482, 0.707 147.238 C 0.946 145.994, 0.937 144.194, 0.687 143.238 C 0.437 142.282, 0.241 143.300, 0.252 145.500 M 1.200 160.200 C -0.450 161.850, -0.381 182.917, 1.282 185.096 C 4.733 189.619, 12.761 191.209, 18.128 188.434 C 22.438 186.205, 24.003 181.623, 23.985 171.282 C 23.967 161.425, 23.323 159.677, 19.887 160.163 C 17.601 160.486, 17.479 160.908, 17 170.102 C 16.482 180.047, 15.326 183, 11.949 183 C 8.043 183, 7 180.357, 7 170.464 C 7 162.200, 6.767 160.946, 5.066 160.035 C 2.655 158.745, 2.655 158.745, 1.200 160.200 M 248.901 162.106 C 247.306 163.814, 246 165.614, 246 166.106 C 246 168.091, 244.038 166.797, 241.966 163.445 C 240.218 160.617, 239.231 159.952, 237.143 160.195 C 233.297 160.642, 233.372 163.205, 237.427 169.880 C 240.473 174.894, 241 176.646, 241 181.758 C 241 188.114, 242.366 190.458, 245.702 189.823 C 247.169 189.544, 247.592 188.190, 248 182.459 C 248.437 176.320, 248.971 174.796, 252.250 170.335 C 256.145 165.035, 256.847 162.247, 254.800 160.200 C 253.003 158.403, 252.083 158.700, 248.901 162.106 M 32.667 160.667 C 32.300 161.033, 32 167.572, 32 175.198 C 32 187.112, 32.230 189.151, 33.636 189.691 C 36.859 190.927, 38.477 188.585, 39 181.929 L 39.500 175.562 44 182.256 C 48.733 189.296, 51.129 190.968, 53.575 188.938 C 54.775 187.942, 55.002 185.139, 54.777 174.105 L 54.500 160.500 51.500 160.500 L 48.500 160.500 48 167.500 L 47.500 174.500 42.603 167.250 C 39.026 161.953, 37.117 160, 35.520 160 C 34.317 160, 33.033 160.300, 32.667 160.667 M 64.667 160.667 C 64.300 161.033, 64 167.572, 64 175.198 C 64 187.112, 64.230 189.151, 65.636 189.691 C 66.536 190.036, 67.998 189.861, 68.886 189.302 C 70.195 188.479, 70.555 186.037, 70.790 176.393 C 71.140 162.017, 70.753 160, 67.648 160 C 66.375 160, 65.033 160.300, 64.667 160.667 M 78.275 161.725 C 77.589 163.515, 84.069 183.729, 86.619 187.750 C 88.184 190.218, 91.196 190.710, 92.740 188.750 C 93.282 188.063, 95.531 182.056, 97.738 175.403 C 101.883 162.906, 101.946 160, 98.073 160 C 95.543 160, 94.612 161.447, 91.976 169.477 L 89.686 176.455 88.345 172.477 C 84.498 161.060, 83.907 160, 81.386 160 C 79.990 160, 78.653 160.742, 78.275 161.725 M 109.667 160.667 C 108.426 161.908, 108.911 187.511, 110.200 188.800 C 112.048 190.648, 123.462 190.354, 125.070 188.416 C 127.181 185.872, 124.967 183.549, 120.087 183.189 C 116.401 182.918, 115.916 182.606, 116.188 180.689 C 116.435 178.959, 117.337 178.395, 120.490 178 C 127.193 177.160, 126.213 171, 119.378 171 C 116.667 171, 116 170.605, 116 169 C 116 167.344, 116.667 167, 119.878 167 C 124.282 167, 126.476 165.074, 125.515 162.048 C 124.939 160.232, 124.044 160, 117.599 160 C 113.603 160, 110.033 160.300, 109.667 160.667 M 135.667 160.667 C 135.300 161.033, 135 167.572, 135 175.198 C 135 187.112, 135.230 189.151, 136.636 189.691 C 139.048 190.616, 141.454 188.685, 141.829 185.523 L 142.157 182.748 145.968 186.468 C 150.208 190.609, 153.302 190.870, 153.834 187.132 C 154.049 185.618, 153.202 183.776, 151.449 181.947 L 148.730 179.109 151.365 175.978 C 154.969 171.695, 154.968 166.241, 151.364 162.636 C 149.082 160.355, 147.893 160, 142.530 160 C 139.122 160, 136.033 160.300, 135.667 160.667 M 165.356 162.370 C 163.303 164.136, 162.600 165.654, 162.600 168.321 C 162.600 172.936, 164.980 175.500, 171.172 177.557 C 174.750 178.746, 176.022 179.651, 175.794 180.848 C 175.365 183.102, 171.407 183.497, 168.477 181.577 C 165.155 179.400, 162.263 179.595, 161.485 182.048 C 160.262 185.902, 166.131 190, 172.874 190 C 178.713 190, 183 186.133, 183 180.866 C 183 176.008, 180.040 172.692, 174.122 170.918 C 171.855 170.239, 170 169.080, 170 168.342 C 170 166.686, 174.339 166.570, 176.881 168.158 C 179.088 169.536, 181.794 168.701, 182.690 166.365 C 183.119 165.248, 182.423 163.900, 180.612 162.342 C 176.777 159.044, 169.207 159.058, 165.356 162.370 M 192.035 161.934 C 190.723 164.386, 190.677 184.021, 191.975 187.435 C 193.013 190.166, 195.785 190.815, 197.800 188.800 C 198.606 187.994, 199 183.467, 199 175 C 199 162.025, 198.438 160, 194.835 160 C 193.865 160, 192.605 160.870, 192.035 161.934 M 206.652 161.464 C 205.684 163.986, 207.070 166.064, 210.126 166.675 L 213 167.250 213 178.156 C 213 187.331, 213.260 189.162, 214.636 189.691 C 218.465 191.160, 219.486 188.793, 219.783 177.762 L 220.065 167.237 223.100 166.630 C 225.711 166.108, 226.091 165.637, 225.818 163.261 L 225.500 160.500 216.371 160.214 C 208.903 159.980, 207.134 160.208, 206.652 161.464 M 142 169.500 C 142 172.065, 143.430 172.647, 145.896 171.086 C 147.821 169.867, 146.512 167, 144.031 167 C 142.531 167, 142 167.654, 142 169.500 M 1.122 200.278 C -0.471 201.871, -0.267 206.583, 1.549 210.094 C 3.422 213.717, 8.498 216.991, 12.250 216.996 C 13.762 216.998, 14.998 217.113, 14.996 217.250 C 14.994 217.387, 13.869 219.714, 12.496 222.419 C 10.274 226.799, 10 228.574, 10 238.593 C 10 249.826, 10.006 249.852, 13.077 252.923 L 16.154 256 94.454 256 C 178.853 256, 176.746 256.131, 174.034 251.064 C 172.933 249.006, 172.695 249, 96.536 249 C 11.231 249, 16.584 249.464, 17.197 242.126 L 17.500 238.500 128 238.500 L 238.500 238.500 238.803 242.126 C 239.370 248.909, 239.003 249, 210.964 249 C 186.837 249, 186.036 249.064, 184.966 251.064 C 184.146 252.596, 184.168 253.498, 185.053 254.564 C 186.035 255.747, 190.973 256, 213.046 256 L 239.846 256 242.923 252.923 C 245.994 249.852, 246 249.826, 246 238.593 C 246 228.574, 245.726 226.799, 243.504 222.419 C 242.131 219.714, 241.006 217.387, 241.004 217.250 C 241.002 217.113, 242.147 217, 243.550 217 C 249.800 217, 257 209.427, 257 202.853 C 257 201.101, 256.704 199.963, 256.342 200.325 C 255.980 200.687, 255.193 200.588, 254.592 200.106 C 252.653 198.551, 249.223 200.710, 248.515 203.932 C 247.094 210.404, 255.107 210, 128 210 C 0.556 210, 8.946 210.430, 7.230 203.806 C 6.349 200.407, 2.954 198.446, 1.122 200.278 M 0.252 204.500 C 0.263 206.700, 0.468 207.482, 0.707 206.238 C 0.946 204.994, 0.937 203.194, 0.687 202.238 C 0.437 201.282, 0.241 202.300, 0.252 204.500 M 27.500 218.417 C 23.570 220.171, 19.315 224.801, 18.463 228.250 L 17.783 231 128 231 L 238.217 231 237.537 228.250 C 236.660 224.701, 232.372 220.127, 228.282 218.377 C 223.581 216.365, 32.011 216.404, 27.500 218.417" stroke="none" fill="#050505" fill-rule="evenodd"/><path d="M 45.250 136.716 C 46.763 136.945, 49.237 136.945, 50.750 136.716 C 52.263 136.487, 51.025 136.300, 48 136.300 C 44.975 136.300, 43.737 136.487, 45.250 136.716 M 20.250 140.742 C 23.962 140.934, 30.038 140.934, 33.750 140.742 C 37.462 140.549, 34.425 140.392, 27 140.392 C 19.575 140.392, 16.538 140.549, 20.250 140.742 M 100.674 140.750 C 125.520 140.899, 166.470 140.899, 191.674 140.750 C 216.879 140.601, 196.550 140.479, 146.500 140.479 C 96.450 140.479, 75.829 140.601, 100.674 140.750" stroke="none" fill="#dadbd1" fill-rule="evenodd"/></svg>